#N canvas 727 334 450 300 10;
#X floatatom 194 -682 7 0 0 0 - - -, f 7;
#X floatatom 249 -681 5 0 0 0 - - -, f 5;
#X floatatom 308 -681 5 -1 2 0 - - -, f 5;
#X obj 308 -658 t b f;
#X obj 249 -658 * 44.1;
#X obj 194 -659 t f f;
#X obj 231 -615 +;
#X obj 202 -560 pack f f f;
#X obj 278 -615 / 1;
#X msg 202 -536 \$1 \, \$2 \$3;
#X obj 132 -826 inlet;
#X obj 252 -726 r grain-duration;
#X obj 332 -706 r grain-speed;
#X obj 302 -526 f;
#X obj 292 -546 bng 15 250 50 0 empty empty empty 17 7 0 10 #fcfcfc
#000000 #000000;
#X obj 132 -696 +;
#X text 2 -826 This random is used to offset the start position of
every grain slightly for variations, f 18;
#X obj 182 -786 r velocity;
#X obj 152 -746 random;
#X obj 132 -796 t b f;
#X msg 302 -496 1 10 \, 0 10 \$1;
#X obj 317 -556 - 1 0;
#X obj 302 -466 vline~;
#X obj 202 -466 vline~;
#X obj 202 -396 *~;
#X obj 202 -366 outlet~;
#X obj 202 -426 tabread4~ book4;
#X connect 0 0 5 0;
#X connect 1 0 4 0;
#X connect 1 0 8 0;
#X connect 2 0 3 0;
#X connect 3 0 8 0;
#X connect 3 1 8 1;
#X connect 4 0 6 1;
#X connect 5 0 7 0;
#X connect 5 1 6 0;
#X connect 6 0 7 1;
#X connect 7 0 9 0;
#X connect 8 0 7 2;
#X connect 8 0 21 0;
#X connect 9 0 14 0;
#X connect 9 0 23 0;
#X connect 10 0 19 0;
#X connect 11 0 1 0;
#X connect 12 0 2 0;
#X connect 13 0 20 0;
#X connect 14 0 13 0;
#X connect 15 0 0 0;
#X connect 17 0 18 1;
#X connect 18 0 15 1;
#X connect 19 0 18 0;
#X connect 19 1 15 0;
#X connect 20 0 22 0;
#X connect 21 0 13 1;
#X connect 22 0 24 1;
#X connect 23 0 26 0;
#X connect 24 0 25 0;
#X connect 26 0 24 0;
