#N canvas 0 0 1904 968 10;
#X floatatom 932 384 7 0 0 0 - - -, f 7;
#X floatatom 987 385 5 0 0 0 - - -, f 5;
#X floatatom 1046 385 5 -1 2 0 - - -, f 5;
#X obj 1046 408 t b f;
#X obj 987 408 * 44.1;
#X obj 932 407 t f f;
#X obj 969 451 +;
#X obj 940 506 pack f f f;
#X obj 1016 451 / 1;
#X msg 940 530 \$1 \, \$2 \$3;
#X obj 938 710 *~;
#X obj 910 780 outlet~;
#X obj 990 340 r grain-duration;
#X obj 1070 360 r grain-speed;
#X obj 1040 540 f;
#X obj 1030 520 bng 15 250 50 0 empty empty empty 17 7 0 10 #fcfcfc
#000000 #000000;
#X text 750 260 This random is used to offset the start position of
every grain slightly for variations, f 18;
#X obj 938 582 tabread4~ grain2;
#X obj 900 200 inlet;
#X obj 900 330 +;
#X obj 950 240 r velocity;
#X obj 920 280 random;
#X obj 900 230 t b f;
#X msg 1040 570 1 10 \, 0 10 \$1;
#X obj 1055 510 - 10;
#X obj 1040 600 vline~;
#X obj 940 554 vline~;
#X obj 960 736 *~ 0.5;
#X connect 0 0 5 0;
#X connect 1 0 4 0;
#X connect 1 0 8 0;
#X connect 2 0 3 0;
#X connect 3 0 8 0;
#X connect 3 1 8 1;
#X connect 4 0 6 1;
#X connect 5 0 7 0;
#X connect 5 1 6 0;
#X connect 6 0 7 1;
#X connect 7 0 9 0;
#X connect 8 0 7 2;
#X connect 8 0 24 0;
#X connect 9 0 15 0;
#X connect 9 0 26 0;
#X connect 10 0 27 0;
#X connect 12 0 1 0;
#X connect 13 0 2 0;
#X connect 14 0 23 0;
#X connect 15 0 14 0;
#X connect 17 0 10 0;
#X connect 18 0 22 0;
#X connect 19 0 0 0;
#X connect 20 0 21 1;
#X connect 21 0 19 1;
#X connect 22 0 21 0;
#X connect 22 1 19 0;
#X connect 23 0 25 0;
#X connect 24 0 14 1;
#X connect 25 0 10 1;
#X connect 26 0 17 0;
#X connect 27 0 11 0;
